<svg width="93" height="97" viewBox="0 0 93 97" fill="none" xmlns="http://www.w3.org/2000/svg">
<path d="M55.877 64.2069C54.7116 68.9907 51.7161 73.1864 46.8554 74.6523C39.4734 76.8791 33.5965 70.1936 35.5923 62.9562C38.1115 53.8185 48.7619 52.9084 56.582 55.3536C56.7747 58.3596 56.5761 61.3362 55.877 64.2069ZM92.2788 94.839C92.8215 88.0115 92.4244 81.3593 91.1175 74.6321C90.8255 73.1331 88.4959 73.4602 88.5107 74.9494C88.5394 77.8767 88.6535 80.7891 88.8376 83.699C82.4636 71.1657 71.3982 57.0526 58.1234 52.7081C57.4329 48.5978 56.1444 44.5586 54.683 40.9233C45.4279 17.9198 23.4945 7.07839 1.09489 0.638458C0.535915 0.478696 0.32531 1.3205 0.867405 1.50532C14.688 6.19791 28.8403 11.3685 39.6194 21.7104C47.3185 29.1009 54.4568 40.6553 56.2271 52.1595C53.2866 51.4192 50.2469 51.1582 47.1335 51.5185C40.2064 52.3189 33.6238 56.9071 32.7693 64.2292C32.0694 70.2269 35.5319 76.3421 41.7166 77.3897C48.8614 78.6005 55.2297 73.224 57.4189 66.7692C58.5716 63.3714 58.8372 59.7264 58.5431 56.0648C58.8143 56.1764 59.093 56.2821 59.3537 56.4011C73.5348 62.9462 84.0202 77.1742 89.5154 91.4371C89.5698 91.5764 89.6524 91.6959 89.7435 91.8052C89.7298 92.1316 89.7129 92.458 89.696 92.7846C86.9304 91.448 84.5835 89.7869 82.3196 87.5824C81.0737 86.3682 79.1857 88.2804 80.4387 89.5008C83.5264 92.5018 86.6378 94.4974 90.5973 96.1248C91.4632 96.4818 92.2189 95.6003 92.2788 94.839Z" fill="#1F2320"/>
</svg>
