<svg width="14" height="14" viewBox="0 0 14 14" fill="none" xmlns="http://www.w3.org/2000/svg">
<path d="M12.7347 0.580321C11.1802 1.42496 9.39725 1.52848 7.65047 1.72896C6.79764 1.82756 5.95299 1.94914 5.14941 2.19236C4.97523 2.24493 4.80106 2.3041 4.63014 2.36983C4.12238 2.56374 3.63268 2.81844 3.17093 3.1586C2.73711 3.47738 2.38216 3.85534 2.08309 4.27109C1.60654 4.93495 1.2746 5.69907 1.00182 6.49278C0.503913 7.9339 0.275499 9.46542 0.319867 10.9887C0.337943 11.6066 0.347803 12.2491 0.500626 12.8522C0.535135 12.9853 0.568 13.1545 0.671525 13.2531C0.806273 13.383 1.04783 13.2499 0.993605 13.0609C0.602508 11.7282 0.845711 10.1704 1.38634 8.89687C2.0075 7.43271 3.20708 6.56178 4.67287 6.03102C5.06232 5.8897 5.46001 5.76646 5.86423 5.64978C5.87245 5.64651 5.88067 5.64651 5.88888 5.64651C5.9694 5.64651 6.00391 5.76481 5.9201 5.80262C5.44356 6.01789 4.9703 6.2348 4.52003 6.46979C2.31477 7.62007 1.35182 10.2986 2.17838 10.2986C2.24577 10.2986 2.32463 10.2805 2.41501 10.2427C3.69018 9.71523 5.20527 9.71032 6.60697 9.45068C7.09995 9.3603 7.57978 9.23706 8.03005 9.04973C9.81792 8.30369 11.0964 6.84447 11.8572 5.08947C12.4241 3.77979 12.6443 2.23348 13.0732 0.872838C13.1291 0.698652 13.0058 0.549132 12.8547 0.549132C12.8169 0.547456 12.7758 0.557332 12.7347 0.580321Z" fill="#2DB875"/>
</svg>
