<svg width="252" height="252" viewBox="0 0 252 252" fill="none" xmlns="http://www.w3.org/2000/svg">
<g opacity="0.4">
<path fill-rule="evenodd" clip-rule="evenodd" d="M-86.1112 9.93474L154.093 0.208568L157.911 82.6959L240.419 79.355L251.535 319.498L-71.1771 332.566L-86.1112 9.93474ZM-31.7949 289.611L208.331 279.888L201.037 122.31L118.529 125.651L114.71 43.1633L-42.9072 49.5454L-31.7949 289.611Z" fill="#C1FFD4"/>
<path fill-rule="evenodd" clip-rule="evenodd" d="M40.9136 182.466L133.206 81.8009L161.21 107.475L68.9172 208.14L40.9136 182.466Z" fill="#C1FFD4"/>
<path fill-rule="evenodd" clip-rule="evenodd" d="M23.7928 199.536C17.4904 206.41 17.9859 217.122 24.9005 223.461C31.815 229.801 42.5295 229.367 48.8319 222.492C55.1341 215.618 54.6387 204.907 47.7241 198.567C40.8095 192.228 30.0951 192.662 23.7928 199.536ZM8.6559 241.179C-8.1002 225.817 -9.30204 199.858 5.97234 183.198C21.2467 166.538 47.2126 165.487 63.9686 180.849C80.7246 196.211 81.9268 222.171 66.6523 238.831C51.3779 255.491 25.412 256.542 8.6559 241.179Z" fill="#C1FFD4"/>
</g>
</svg>
