<svg width="48" height="48" viewBox="0 0 48 48" fill="none" xmlns="http://www.w3.org/2000/svg">
<rect width="48" height="48" fill="white"/>
<g clip-path="url(#clip0_658_6413)">
<path fill-rule="evenodd" clip-rule="evenodd" d="M31.0028 17.5752L35.7929 22.32L34.1476 23.9498L35.7929 25.5796L31.0028 30.3244L24.5674 23.9498L31.0028 17.5752ZM26.2143 23.9498L31.0028 28.693L34.146 25.5796L32.5006 23.9498L34.146 22.32L31.0028 19.2065L26.2143 23.9498Z" fill="#006D40" fill-opacity="0.11"/>
<path fill-rule="evenodd" clip-rule="evenodd" d="M29.835 23.4263H33.6945V24.4836H29.835V23.4263Z" fill="#006D40" fill-opacity="0.11"/>
<path fill-rule="evenodd" clip-rule="evenodd" d="M29.1526 23.396C28.8891 23.396 28.6754 23.6077 28.6754 23.8687C28.6754 24.1298 28.8891 24.3415 29.1526 24.3415C29.4162 24.3415 29.6298 24.1298 29.6298 23.8687C29.6298 23.6077 29.4162 23.396 29.1526 23.396ZM27.9961 23.8687C27.9961 23.236 28.5139 22.7231 29.1526 22.7231C29.7914 22.7231 30.3092 23.236 30.3092 23.8687C30.3092 24.5014 29.7914 25.0143 29.1526 25.0143C28.5139 25.0143 27.9961 24.5014 27.9961 23.8687Z" fill="#006D40" fill-opacity="0.11"/>
<path fill-rule="evenodd" clip-rule="evenodd" d="M17.3369 16.7446L22.1271 12L23.7725 13.6297L25.418 12L30.2082 16.7446L23.7725 23.119L17.3369 16.7446ZM23.7725 21.4877L28.5612 16.7446L25.418 13.6313L23.7725 15.261L22.1271 13.6313L18.9839 16.7446L23.7725 21.4877Z" fill="#006D40" fill-opacity="0.11"/>
<path fill-rule="evenodd" clip-rule="evenodd" d="M23.2441 17.9016V14.0786H24.3116V17.9016H23.2441Z" fill="#006D40" fill-opacity="0.11"/>
<path fill-rule="evenodd" clip-rule="evenodd" d="M23.2135 18.5777C23.2135 18.8388 23.4271 19.0504 23.6907 19.0504C23.9543 19.0504 24.168 18.8387 24.168 18.5777C24.168 18.3166 23.9543 18.105 23.6907 18.105C23.4271 18.105 23.2135 18.3166 23.2135 18.5777ZM23.6907 19.7233C23.052 19.7233 22.5342 19.2104 22.5342 18.5777C22.5342 17.945 23.052 17.4321 23.6907 17.4321C24.3295 17.4321 24.8473 17.945 24.8473 18.5777C24.8473 19.2104 24.3295 19.7233 23.6907 19.7233Z" fill="#006D40" fill-opacity="0.11"/>
<path fill-rule="evenodd" clip-rule="evenodd" d="M30.1965 31.2552L25.4062 35.9999L23.7608 34.3701L22.1154 35.9999L17.3252 31.2552L23.7608 24.8809L30.1965 31.2552ZM23.7608 26.5122L18.9722 31.2552L22.1154 34.3686L23.7608 32.7388L25.4062 34.3686L28.5495 31.2552L23.7608 26.5122Z" fill="#006D40" fill-opacity="0.11"/>
<path fill-rule="evenodd" clip-rule="evenodd" d="M24.2892 30.0984V33.9214H23.2217V30.0984H24.2892Z" fill="#006D40" fill-opacity="0.11"/>
<path fill-rule="evenodd" clip-rule="evenodd" d="M24.3193 29.4224C24.3193 29.1614 24.1057 28.9497 23.8421 28.9497C23.5785 28.9497 23.3649 29.1614 23.3649 29.4224C23.3649 29.6835 23.5785 29.8951 23.8421 29.8951C24.1057 29.8951 24.3193 29.6835 24.3193 29.4224ZM23.8421 28.2769C24.4809 28.2769 24.9987 28.7897 24.9987 29.4224C24.9987 30.0551 24.4809 30.568 23.8421 30.568C23.2033 30.568 22.6855 30.0551 22.6855 29.4224C22.6855 28.7897 23.2033 28.2769 23.8421 28.2769Z" fill="#006D40" fill-opacity="0.11"/>
<path fill-rule="evenodd" clip-rule="evenodd" d="M16.7901 30.3122L12 25.5674L13.6454 23.9376L12 22.3078L16.7901 17.563L23.2255 23.9376L16.7901 30.3122ZM21.5786 23.9376L16.7901 19.1943L13.6469 22.3078L15.2923 23.9376L13.6469 25.5674L16.7901 28.6808L21.5786 23.9376Z" fill="#006D40" fill-opacity="0.11"/>
<path fill-rule="evenodd" clip-rule="evenodd" d="M17.9582 24.4612H14.0986V23.4038H17.9582V24.4612Z" fill="#006D40" fill-opacity="0.11"/>
<path fill-rule="evenodd" clip-rule="evenodd" d="M18.641 24.4914C18.9045 24.4914 19.1182 24.2797 19.1182 24.0187C19.1182 23.7576 18.9045 23.5459 18.641 23.5459C18.3774 23.5459 18.1637 23.7576 18.1637 24.0187C18.1637 24.2797 18.3774 24.4914 18.641 24.4914ZM19.7975 24.0187C19.7975 24.6513 19.2797 25.1643 18.641 25.1643C18.0022 25.1643 17.4844 24.6513 17.4844 24.0187C17.4844 23.386 18.0022 22.873 18.641 22.873C19.2797 22.873 19.7975 23.386 19.7975 24.0187Z" fill="#006D40" fill-opacity="0.11"/>
</g>
<defs>
<clipPath id="clip0_658_6413">
<rect width="24" height="24" fill="white" transform="translate(12 12)"/>
</clipPath>
</defs>
</svg>
